<svg width="128" height="128" viewBox="0 0 128 128" fill="none" xmlns="http://www.w3.org/2000/svg">
  <rect width="128" height="128" rx="64" fill="#E5E7EB"/>
  <path d="M64 32C52.96 32 44 40.96 44 52C44 63.04 52.96 72 64 72C75.04 72 84 63.04 84 52C84 40.96 75.04 32 64 32ZM64 40C70.64 40 76 45.36 76 52C76 58.64 70.64 64 64 64C57.36 64 52 58.64 52 52C52 45.36 57.36 40 64 40ZM96 96C96 84 84 76 64 76C44 76 32 84 32 96V100H40V96C40 89.36 47.04 84 64 84C80.96 84 88 89.36 88 96V100H96V96Z" fill="#9CA3AF"/>
</svg>
